<?xml version="1.0" encoding="UTF-8" standalone="no"?>
<svg
   width="144.667"
   height="31.043"
   viewBox="0 0 144.667 31.043"
   version="1.1"
   id="svg63"
   sodipodi:docname="logo.svg"
   inkscape:version="1.1.1 (1:1.1+202109281949+c3084ef5ed)"
   xmlns:inkscape="http://www.inkscape.org/namespaces/inkscape"
   xmlns:sodipodi="http://sodipodi.sourceforge.net/DTD/sodipodi-0.dtd"
   xmlns="http://www.w3.org/2000/svg"
   xmlns:svg="http://www.w3.org/2000/svg">
  <defs
     id="defs67">
    <linearGradient
       id="linearGradient42820"
       inkscape:swatch="solid">
      <stop
         style="stop-color:#c8e0f4;stop-opacity:1;"
         offset="0"
         id="stop42818" />
    </linearGradient>
  </defs>
  <sodipodi:namedview
     id="namedview65"
     pagecolor="#505050"
     bordercolor="#ffffff"
     borderopacity="1"
     inkscape:pageshadow="0"
     inkscape:pageopacity="0"
     inkscape:pagecheckerboard="1"
     showgrid="false"
     inkscape:zoom="5.6509084"
     inkscape:cx="87.950461"
     inkscape:cy="37.073685"
     inkscape:window-width="1848"
     inkscape:window-height="1016"
     inkscape:window-x="72"
     inkscape:window-y="27"
     inkscape:window-maximized="1"
     inkscape:current-layer="svg63" />
  <g
     id="Marcos_Logo"
     data-name="Marcos Logo"
     transform="translate(-326.777 -95.07)">
    <path
       id="Caminho_1"
       data-name="Caminho 1"
       d="M376.7,114.483c-.31,1.459-6.987,11.586-11.409,11.586a4.179,4.179,0,0,1-4.024-3.582c0-2.432,5.085-18.882,5.218-24.012-5.439,14.9-14.106,27.594-17.025,27.594a4.1,4.1,0,0,1-3.714-3.4c0-2.742,4.466-18.042,5.085-24.144a143.948,143.948,0,0,1-9.6,20.075c-2.786,4.6-6.014,7.474-8.844,7.474-2.7,0-5.616-2.654-5.616-7.96,0-6.544,4.555-12.249,8.712-12.249a3.408,3.408,0,0,1,3.67,3.14,3.724,3.724,0,0,1-.84,2.343,3.35,3.35,0,0,0-1.99-.663c-3.317,0-6.1,5.174-6.1,8.579,0,2.609.929,4.156,2.3,4.156,1.725,0,4.82-1.945,8.534-8.622a117.284,117.284,0,0,0,8.358-19.59,8.18,8.18,0,0,1,1.459-.133c2.7,0,5.307,1.283,5.307,3.671,0,1.459-1.239,6.9-2.3,10.922a100.426,100.426,0,0,0-2.609,11.674c3.361-2.918,9.684-13,13.929-26.134a8.693,8.693,0,0,1,1.5-.133c2.609,0,5.218,1.194,5.218,3.4l-.044.487c-.354,1.9-1.548,6.9-2.255,9.684-1.548,6.279-2.742,10.878-3.184,13.752,1.857,0,7.384-5.262,8.888-8.932C375.552,113.333,376.878,113.6,376.7,114.483Z"
       fill="#935e92" />
    <path
       id="Caminho_2"
       data-name="Caminho 2"
       d="M371.654,121.293c0-5.218,2.7-15.389,10.613-15.389a9.311,9.311,0,0,1,5.218,1.5l.132-.929a2,2,0,0,1,.487-.044c1.592,0,4.2,1.15,4.2,2.83a2.234,2.234,0,0,1-.089.531c-1.061,3.714-3.98,12.47-3.36,12.47,1.989,0,5.571-5.793,7.384-9.552a1.255,1.255,0,0,1,1.283.973c-1.371,3.007-6.147,12.426-9.906,12.426-2.166,0-3.891-2.167-3.891-3.051,0-1.681,2.034-6.235,2.786-8.667l-.177-.089c-2.874,6.412-7.518,11.807-10.48,11.807C373.423,126.113,371.654,123.327,371.654,121.293Zm15.035-10.746a7.734,7.734,0,0,0-4.732-1.68c-2.388,0-5.218,5.97-5.218,10.967,0,1.238.265,1.99.973,1.99C379.348,121.824,383.284,117.269,386.689,110.547Z"
       fill="#935e92" />
    <path
       id="Caminho_3"
       data-name="Caminho 3"
       d="M414.588,113.908c0,.442-5.616,12.161-9.552,12.161a4.192,4.192,0,0,1-4.289-3.8c0-2.388,2.167-7.96,3.228-12.6a33.961,33.961,0,0,1-4.466-.619,42.586,42.586,0,0,1-4.113,8.711c-.575,0-.928-1.061-.928-1.68a45.917,45.917,0,0,0,3.449-7.429,3.164,3.164,0,0,1-2.123-3.1,3.382,3.382,0,0,1,3.4-3.273,4.216,4.216,0,0,1,2.565,1.017,27.911,27.911,0,0,1-.4,3.184,42.813,42.813,0,0,0,4.864.442c1.238.089,2.521,1.725,2.521,3.538,0,1.5-3.582,11.807-2.786,11.807,2.476,0,6.412-7.253,7.561-9.6A1.174,1.174,0,0,1,414.588,113.908Z"
       fill="#935e92" />
    <path
       id="Caminho_4"
       data-name="Caminho 4"
       d="M411.711,118.684c0-4.82,3.228-12.824,10.79-12.824,3.714,0,5.527,1.9,5.527,4.245,0,1.99-1.282,3.8-3.184,3.8a4.18,4.18,0,0,1-1.9-.486,7.4,7.4,0,0,0,1.371-3.847c0-1.15-.531-1.637-1.46-1.637-3.316,0-5.925,6.235-5.925,10.3,0,2.653,1.149,4.377,3.361,4.377,3.493,0,8.622-4.156,11.143-9.949.486,0,1.282.663,1.1,1.238-1.724,4.555-7.252,12.161-14.062,12.161C413.922,126.069,411.711,122.664,411.711,118.684Z"
       fill="#935e92" />
    <path
       id="Caminho_5"
       data-name="Caminho 5"
       d="M454.469,109.265a1.517,1.517,0,0,1-.133.575c-1.371,2.565-4.6,4.245-7.915,4.953-.619,5.616-3.98,11.276-10.348,11.276-4.643,0-6.588-3.007-6.588-6.722,0-4.334,2.7-11.762,9.861-12.647a4.189,4.189,0,0,1,2.609-.84c2.83,0,4.6,2.476,4.6,6.987v.133a11.282,11.282,0,0,0,7.3-4.821A1.213,1.213,0,0,1,454.469,109.265Zm-10.878,5.881h-.4c-3.4,0-5.837-2.122-5.881-4.466a16.114,16.114,0,0,0-2.521,8.623c0,2.476.619,4.245,2.476,4.245C440.009,123.548,442.883,119.657,443.591,115.146Zm-2.786-6.987c-.885,0-1.327.531-1.327,1.681,0,2.211,1.548,3.449,4.069,3.449h.176V113.2C443.723,109.663,442.22,108.159,440.8,108.159Z"
       fill="#935e92" />
    <path
       id="Caminho_6"
       data-name="Caminho 6"
       d="M453.935,126.024a5.258,5.258,0,0,1-.84.045h-.442c-2.477-.133-3.626-1.371-3.626-2.786a3.827,3.827,0,0,1,2.034-3.051,3.955,3.955,0,0,0,3.582,2.3c2.034,0,3.183-1.194,3.183-2.919,0-1.591-1.061-3.006-2.167-4.6a16.007,16.007,0,0,1-2.255-3.758,48.117,48.117,0,0,1-3.626,7.075,1.411,1.411,0,0,1-1.194-1.282,40.021,40.021,0,0,0,4.245-8.889,4.461,4.461,0,0,1,.045-.795,3.281,3.281,0,0,1,3.449-2.742,1.192,1.192,0,0,1,1.326,1.15,6.137,6.137,0,0,1-.4,1.813c.53.972,1.238,1.99,1.9,3.007,1.592,2.343,3.228,4.775,3.228,7.163a6.752,6.752,0,0,1-.663,2.742,26.944,26.944,0,0,0,5.483-7.783,1.066,1.066,0,0,1,1.061,1.061C467.732,115.986,463.088,125.184,453.935,126.024Z"
       fill="#935e92" />
    <path
       id="Caminho_7"
       data-name="Caminho 7"
       d="M466.359,123.592a2.708,2.708,0,0,1,2.741-2.83,2.373,2.373,0,0,1,2.344,2.432,2.166,2.166,0,0,1-.044.531,2.553,2.553,0,0,1-2.565,2.344A2.331,2.331,0,0,1,466.359,123.592Z"
       fill="#ff895f" />
  </g>
  <path
     style="fill:#000080;stroke-width:0.0884814"
     d="m 48.078851,30.81405 c -1.019657,-0.35735 -1.985174,-1.241234 -2.529712,-2.315829 -0.293275,-0.578749 -0.556372,-1.348031 -0.556372,-1.626798 0,-0.188539 -0.169509,-0.05535 -1.172378,0.921188 -2.781382,2.708354 -4.640421,3.556402 -6.46193,2.947774 -1.091023,-0.364547 -1.942428,-1.111261 -2.455592,-2.153643 -0.375428,-0.762603 -0.413224,-1.29667 -0.17915,-2.531403 0.105841,-0.558314 0.904642,-3.842096 1.775112,-7.297293 C 38.886526,9.280454 39.435586,6.7509282 39.72514,3.8943707 39.798297,3.1726498 39.693795,3.3198558 39.192077,4.6452709 34.863937,16.07913 27.624826,28.168364 23.651289,30.598212 c -0.529578,0.323841 -0.587287,0.339033 -1.146142,0.301716 -0.774025,-0.05168 -1.602096,-0.439236 -2.252179,-1.054057 -0.576982,-0.545685 -0.875956,-1.021684 -1.106032,-1.760921 -0.141013,-0.453075 -0.152572,-0.627338 -0.07755,-1.169209 0.204568,-1.477596 0.569871,-3.124004 2.215005,-9.98294 1.662165,-6.929948 2.29875,-9.8781062 2.643645,-12.2432894 0.147513,-1.011601 0.164916,-1.3186552 0.06729,-1.1871249 -0.01505,0.020277 -0.278345,0.673933 -0.5851,1.4525689 -2.687359,6.8213364 -7.534241,16.5436954 -10.073875,20.2071854 -1.676541,2.418454 -3.4987701,4.18736 -5.2505438,5.096897 -0.9426453,0.48943 -1.5970096,0.665194 -2.4765061,0.665194 -2.5042216,0 -4.5796439,-2.07334 -5.30856386,-5.303239 C 0.07136179,24.604635 -0.01020355,22.642134 0.12776533,21.459326 0.67400377,16.776418 3.5400603,12.449571 6.935424,11.181896 7.63151,10.922009 7.7902993,10.89662 8.7596537,10.890218 c 0.9747008,-0.0064 1.1032686,0.01243 1.5677183,0.230123 0.703482,0.329722 1.339497,0.952769 1.681252,1.646973 0.456981,0.928259 0.389642,1.985894 -0.190499,2.992037 l -0.260669,0.452079 -0.55484,-0.275116 C 10.292409,15.58416 9.2666474,15.510596 8.4868012,15.755887 6.4560327,16.394643 4.5003684,19.024556 3.655354,22.25306 c -0.2611071,0.997598 -0.2815023,3.014331 -0.039318,3.887872 0.2988958,1.078096 0.7448579,1.752798 1.3532158,2.047299 1.2097207,0.585616 3.1560501,-0.33721 5.1467762,-2.440274 1.943273,-2.052935 3.687887,-4.81843 6.028328,-9.55587 2.35293,-4.762723 4.114353,-8.9801566 5.801851,-13.8915719 l 0.729625,-2.1235524 0.474344,-0.0736699 c 0.260889,-0.04051843 0.872511,-0.05235721 1.359158,-0.02630841 2.212646,0.11843642 3.912881,1.01138721 4.570692,2.40049341 0.206877,0.4368644 0.251414,0.6488137 0.251472,1.1967338 1.77e-4,1.505069 -1.096851,6.5537524 -2.786549,12.8243334 -0.745885,2.768028 -1.721803,7.317962 -2.031382,9.470731 l -0.05726,0.398166 0.871673,-0.889431 C 29.398556,21.324514 34.901331,10.880547 38.083918,1.267943 L 38.455082,0.14688944 39.129307,0.0837094 c 1.946596,-0.18241104 4.049061,0.39099088 5.072639,1.383453 0.815881,0.7910796 1.034989,1.6571501 0.750964,2.9683494 -0.505526,2.3337592 -1.218322,5.3323665 -2.615866,11.0044842 -0.869306,3.528193 -1.743799,7.131596 -1.943317,8.007562 -0.413137,1.81384 -0.805488,3.871267 -0.749019,3.927736 0.07487,0.07487 0.800916,-0.188059 1.333114,-0.48277 0.794998,-0.44024 2.063923,-1.450098 3.156022,-2.511684 l 0.960109,-0.933282 0.262438,-1.266762 c 0.336567,-1.624572 0.749874,-2.982175 1.315944,-4.322528 2.065287,-4.890228 5.493102,-7.3308 9.734437,-6.930829 1.219662,0.115018 2.285312,0.419344 3.403307,0.97191 0.484825,0.239624 0.897615,0.419565 0.91731,0.399869 0.0197,-0.0197 0.05629,-0.217508 0.08132,-0.439584 0.05596,-0.496456 0.187673,-0.54638 1.077345,-0.408343 1.996588,0.309781 3.595256,1.542458 3.566453,2.749966 -0.0052,0.218991 -0.246549,1.17459 -0.536278,2.123552 -2.339185,7.661622 -2.935045,9.793787 -2.935045,10.502457 0,0.356576 0.01545,0.380696 0.243323,0.379919 1.739052,-0.0059 6.05384,-6.237915 8.361574,-12.076874 0.67327,-1.703489 0.652019,-1.581519 0.297866,-1.709583 -0.16493,-0.05964 -0.487275,-0.273394 -0.716324,-0.47501 -0.998271,-0.878714 -1.332366,-2.084423 -0.930562,-3.3582912 0.673667,-2.1357717 3.105604,-2.9580071 5.131512,-1.7349591 l 0.486647,0.2937909 -0.01729,0.7560235 c -0.0095,0.4158128 -0.08017,1.1467789 -0.157018,1.6243679 -0.07685,0.47759 -0.127133,0.880943 -0.111735,0.896341 0.06748,0.06748 2.186738,0.300575 3.604092,0.396407 1.301571,0.088 1.612466,0.136836 1.950142,0.306304 1.013227,0.508505 1.766968,1.864254 1.765454,3.175511 -7.96e-4,0.690209 -0.124416,1.190906 -1.399615,5.668867 -1.127321,3.958672 -1.431168,5.198168 -1.431168,5.838225 0,0.388277 0.0079,0.39971 0.275179,0.39971 0.949565,0 2.544662,-1.528468 4.271587,-4.09316 1.29758,-1.927063 1.719002,-2.707623 2.144747,-3.972508 1.849915,-5.496077 5.71359,-8.540682 10.501086,-8.274935 2.28373,0.126767 3.847499,0.978696 4.576559,2.493272 0.26021,0.540556 0.30277,0.727601 0.33447,1.469935 0.0722,1.689483 -0.63904,3.054518 -1.918864,3.683027 -0.43055,0.21144 -0.599089,0.243441 -1.249755,0.237286 -0.554831,-0.0052 -0.884919,-0.0589 -1.258514,-0.204561 l -0.506414,-0.197448 0.234201,-0.370567 c 0.856225,-1.354783 1.330494,-3.479875 0.967004,-4.33295 -0.267125,-0.626903 -0.925905,-0.905659 -1.810046,-0.765894 -2.60582,0.411924 -5.236379,5.132237 -5.470554,9.816439 -0.116954,2.339463 0.564918,3.937066 1.960313,4.592935 0.594692,0.279522 1.715618,0.345571 2.546582,0.150056 1.837351,-0.432305 3.590511,-1.487619 5.451787,-3.281697 1.75893,-1.695429 3.07416,-3.465267 3.60089,-4.845564 0.74995,-1.965195 1.80592,-3.607393 3.14776,-4.895259 0.902,-0.865719 1.60039,-1.350092 2.69266,-1.867504 0.7567,-0.358452 2.28883,-0.825139 2.70892,-0.825139 0.0954,0 0.4201,-0.137981 0.72166,-0.306626 1.23831,-0.692498 2.69585,-0.769415 3.87932,-0.204719 1.73561,0.828144 2.64368,2.670185 2.86113,5.803888 l 0.0633,0.912716 0.36425,-0.06124 c 1.47595,-0.248178 3.74382,-1.382795 4.83616,-2.419539 0.38078,-0.361415 0.46717,-0.519111 0.77999,-1.42396 0.19957,-0.57728 0.3707,-1.258968 0.39551,-1.575544 0.0555,-0.70787 0.36586,-1.352543 0.91605,-1.902738 0.60235,-0.6023443 1.23232,-0.8785653 2.11432,-0.9270637 0.83058,-0.045671 1.17924,0.083223 1.4569,0.5385827 0.22096,0.362399 0.21806,0.711909 -0.0138,1.657272 l -0.18717,0.763181 0.42385,0.701034 c 0.23311,0.38557 0.92782,1.457551 1.5438,2.382181 0.61597,0.92463 1.34516,2.064657 1.62043,2.533394 1.53153,2.607893 1.84587,4.422965 1.12808,6.513824 -0.13783,0.401484 -0.22397,0.729971 -0.19144,0.729971 0.0833,0 1.27046,-1.311869 2.02539,-2.23818 1.17035,-1.436029 2.22575,-3.069805 3.07353,-4.757815 0.39024,-0.77703 0.39762,-0.785052 0.63831,-0.693866 0.36102,0.136777 0.63228,0.427095 0.69087,0.739418 0.14589,0.77763 -1.58704,4.002746 -3.28644,6.116309 -0.87079,1.083021 -2.64723,2.781117 -3.66917,3.507344 -2.57139,1.827348 -5.42387,2.811253 -8.15319,2.812278 -0.52075,1.77e-4 -1.15781,-0.04465 -1.4157,-0.09965 -1.13339,-0.241739 -2.02055,-0.874063 -2.37175,-1.690443 -0.3622,-0.841945 -0.11632,-2.035607 0.60294,-2.927115 0.25445,-0.315389 0.97385,-0.942459 1.08342,-0.944381 0.0269,-4.43e-4 0.21704,0.237497 0.42249,0.528821 0.97308,1.37982 2.78166,2.009439 4.43348,1.543422 1.59359,-0.449587 2.3666,-1.985068 1.90199,-3.778056 -0.25017,-0.965453 -0.73757,-1.788708 -2.78304,-4.700824 -0.3383,-0.481631 -0.82251,-1.293082 -1.07604,-1.803223 l -0.46094,-0.927531 -0.15875,0.343281 c -0.0873,0.188805 -0.40084,0.880806 -0.69672,1.53778 -0.61759,1.371367 -1.14686,2.38873 -2.10499,4.046215 -0.73542,1.272206 -0.73413,1.271305 -1.27526,0.890157 -0.26286,-0.18515 -0.50743,-0.586114 -0.50743,-0.831905 0,-0.08328 0.25221,-0.573014 0.56045,-1.08829 0.57208,-0.95631 1.5631,-2.772483 1.5631,-2.864597 0,-0.02806 -0.36937,0.121592 -0.82084,0.33256 -0.832,0.388798 -2.29892,0.905517 -3.12933,1.1023 l -0.45515,0.107858 -0.0606,0.502192 c -0.17959,1.488823 -0.79835,3.527537 -1.48343,4.88761 -0.68608,1.36206 -1.24306,2.145359 -2.23392,3.141619 -1.37628,1.383803 -2.77216,2.145202 -4.64655,2.534538 -1.13836,0.236451 -3.16358,0.186024 -4.15718,-0.103511 -2.56195,-0.746553 -4.01589,-2.722135 -4.23516,-5.754602 l -0.0576,-0.797166 -0.54304,0.685848 c -2.650957,3.348153 -6.058941,5.603647 -9.133119,6.044542 -1.129438,0.161983 -2.725641,0.06724 -3.59605,-0.213443 -1.21271,-0.391067 -2.260514,-1.118444 -2.940956,-2.041591 -0.772293,-1.047759 -1.243228,-2.215795 -1.442301,-3.577261 L 84.966222,24.2901 84.176963,25.492733 c -1.066176,1.624583 -1.733143,2.48804 -2.682915,3.473313 -1.385314,1.437093 -2.288955,1.959079 -3.38813,1.957143 -1.941127,-0.0034 -3.622176,-1.380137 -4.021368,-3.293356 -0.201354,-0.965037 0.06984,-2.211083 1.651646,-7.5888 1.055969,-3.590007 1.531908,-5.358686 1.46105,-5.429544 -0.02347,-0.02347 -0.460496,-0.08722 -0.971167,-0.141668 -0.903164,-0.09629 -2.931341,-0.400749 -3.320793,-0.498496 -0.175591,-0.04407 -0.224268,0.03579 -0.527205,0.864905 -0.87741,2.401414 -2.078734,4.910917 -3.762295,7.859243 -3.305502,5.78874 -5.990291,8.531734 -8.107175,8.282936 -1.2518,-0.147124 -2.619974,-1.098969 -3.250988,-2.261727 -0.234024,-0.43123 -0.250966,-0.522555 -0.204092,-1.100067 0.0686,-0.845193 0.331007,-1.68778 1.621336,-5.206153 0.601833,-1.641031 1.094241,-3.024658 1.094241,-3.074727 0,-0.05007 -0.06103,-0.09103 -0.13562,-0.09103 -0.08464,0 -0.278682,0.307676 -0.516179,0.818452 -0.925101,1.98958 -2.630626,4.741585 -4.044111,6.5255 -1.046123,1.320281 -2.540302,2.780259 -3.502325,3.422159 -1.424774,0.950667 -2.41892,1.17934 -3.492066,0.803245 z m 63.620539,-2.540979 c 1.85404,-0.730799 3.68828,-3.109037 4.6027,-5.967797 0.24159,-0.755287 0.53753,-1.949001 0.53753,-2.168206 0,-0.03814 -0.3683,-0.09393 -0.81845,-0.123981 -1.95608,-0.130561 -3.66945,-0.936134 -4.59174,-2.158902 -0.43926,-0.582349 -0.59083,-0.904874 -0.77235,-1.643323 l -0.156,-0.634643 -0.37445,0.630283 c -0.82762,1.393079 -1.60563,3.529469 -1.91199,5.250225 -0.22628,1.270916 -0.27855,3.581274 -0.1021,4.512549 0.343,1.810344 1.17977,2.628243 2.58439,2.526102 0.2957,-0.0215 0.74681,-0.121541 1.00246,-0.222307 z M 51.654513,26.576913 c 1.930519,-0.97788 4.986702,-4.92283 7.681507,-9.915361 l 0.63209,-1.171042 -0.298562,-0.252721 c -0.444271,-0.376055 -1.794471,-1.007494 -2.599077,-1.21549 -0.389318,-0.100642 -1.030669,-0.206603 -1.425225,-0.23547 -0.649585,-0.04753 -0.765524,-0.03044 -1.226914,0.180789 -2.125685,0.973171 -4.273373,5.859933 -4.442043,10.107248 -0.05941,1.496007 0.03145,2.096312 0.3731,2.464955 0.266845,0.287931 0.78107,0.302545 1.305124,0.03709 z m 65.319497,-9.035485 c -0.19896,-2.381118 -0.99344,-3.928236 -2.23437,-4.351062 -0.80822,-0.27539 -1.48755,-0.110658 -1.85475,0.449767 -0.12838,0.195931 -0.15965,0.426394 -0.15965,1.176602 0,0.841668 0.025,0.987029 0.2553,1.485731 0.56114,1.214968 1.83148,1.900316 3.62497,1.955676 l 0.4295,0.01326 z"
     id="path223" />
  <path
     style="fill:#35ca1c;stroke-width:0.0884814;fill-opacity:1"
     d="m 140.95015,30.720662 c -0.86643,-0.412228 -1.30242,-1.139505 -1.29785,-2.16493 0.003,-0.743551 0.11916,-1.158668 0.46445,-1.664246 1.06134,-1.554018 3.32347,-1.51702 4.20195,0.06873 0.2354,0.42491 0.25927,0.543882 0.25388,1.26534 -0.007,0.94073 -0.18642,1.431109 -0.71804,1.962722 -0.51115,0.511155 -0.92948,0.681676 -1.75349,0.714762 -0.59975,0.02408 -0.77552,-0.0038 -1.1509,-0.182373 z"
     id="path373" />
  <path
     style="fill:#509c04;stroke-width:0.0884814;fill-opacity:0.86768758;stroke:#00ff00;stroke-opacity:1"
     d="M 5.0424745,30.828715 C 2.8622937,30.557802 1.1097142,28.642245 0.37847438,25.730994 0.20660209,25.046727 0.18241703,24.714463 0.1800642,23.005151 0.17772779,21.307766 0.20248786,20.948022 0.37347072,20.195115 1.1763872,16.659546 3.1144295,13.558848 5.5043878,11.986097 c 0.3508525,-0.230884 0.9481017,-0.552653 1.3272203,-0.715042 0.6665976,-0.285525 0.7286592,-0.29532 1.8838049,-0.29731 1.371953,-0.0024 1.685546,0.09906 2.460486,0.795801 1.166209,1.048522 1.393232,2.601172 0.584432,3.997048 l -0.214873,0.370841 -0.482742,-0.221007 c -0.970512,-0.444315 -2.2488029,-0.414295 -3.2321165,0.0759 -0.6954612,0.3467 -1.9953398,1.595973 -2.5555185,2.45603 -0.883423,1.356341 -1.6049343,3.203072 -1.7875386,4.57526 -0.1414058,1.062601 -0.060387,2.655886 0.1722837,3.388061 0.2296351,0.722623 0.6043524,1.318549 1.0358975,1.647425 0.3118052,0.237622 0.3890026,0.25492 1.1374429,0.254867 0.6899104,-5e-5 0.8756864,-0.03413 1.3197689,-0.242123 2.194422,-1.027776 4.5697666,-3.701229 6.8390646,-7.697374 1.318195,-2.321289 3.219308,-6.181145 4.593785,-9.326821 1.342306,-3.0720499 2.311685,-5.5937396 3.846447,-10.0059375 0.274092,-0.78796982 0.294691,-0.81839877 0.591769,-0.8741309 0.498944,-0.09360241 2.502992,0.028222 3.077997,0.18710877 1.33394,0.36859765 2.447794,1.18239773 2.909809,2.12595263 0.319339,0.652178 0.324402,1.4459508 0.02058,3.226595 -0.391099,2.2921625 -0.927599,4.570312 -2.719208,11.546618 -0.714717,2.783026 -1.506943,6.556138 -1.88103,8.958737 -0.01705,0.109496 -2.65e-4,0.199083 0.03734,0.199083 0.119522,0 2.092298,-2.223453 2.7477,-3.096847 3.725725,-4.964924 7.76489,-13.028282 10.615315,-21.1912836 0.356857,-1.0219596 0.690459,-1.88997319 0.741339,-1.9289191 0.164821,-0.12616009 2.789942,-0.003559 3.36632,0.15721685 1.394026,0.38885287 2.429342,1.13406965 2.848985,2.05068975 0.2067,0.4514917 0.222279,0.5658337 0.177459,1.3024753 -0.05628,0.9249455 -0.3263,2.1064016 -2.793283,12.2216278 -1.734634,7.112421 -2.080481,8.594861 -2.39451,10.263837 -0.240764,1.279591 -0.246498,1.227891 0.129402,1.16689 0.853633,-0.138526 2.190865,-1.044061 3.99217,-2.703386 l 1.213603,-1.117945 0.120713,-0.575129 c 0.310167,-1.477771 0.780432,-3.228594 1.105108,-4.114382 1.55398,-4.239602 4.073445,-6.904722 7.295029,-7.71677 0.450245,-0.113489 0.953746,-0.150665 1.975693,-0.145872 1.646198,0.0077 2.476115,0.19319 4.056252,0.906478 0.552006,0.24918 1.039759,0.430736 1.083896,0.403457 0.04414,-0.02728 0.08025,-0.149407 0.08025,-0.271396 0,-0.415043 0.149046,-0.56409 0.564088,-0.56409 0.580451,0 1.674683,0.31183 2.362454,0.673244 0.756185,0.397363 1.424238,1.093731 1.578777,1.64569 0.13635,0.486993 0.07541,0.73792 -1.231095,5.069259 -1.70527,5.653321 -2.123966,7.213207 -2.123966,7.912995 0,0.447174 8.85e-4,0.44849 0.287564,0.447662 1.218634,-0.0035 3.864078,-3.213664 6.248182,-7.581931 0.796282,-1.458986 1.431956,-2.811101 2.071623,-4.406462 0.685709,-1.710192 0.68046,-1.676384 0.289166,-1.862065 -0.49058,-0.232795 -1.13193,-0.855101 -1.423183,-1.380922 -0.241588,-0.436158 -0.262122,-0.54269 -0.262122,-1.359904 0,-0.8235753 0.0207,-0.9287115 0.290816,-1.4774047 0.641052,-1.3021605 2.021435,-2.0007076 3.46033,-1.75111 0.517231,0.089721 1.447363,0.4753529 1.756818,0.7283746 0.149909,0.1225718 0.139853,0.7712818 -0.03311,2.1358941 -0.113542,0.895796 -0.12101,1.15244 -0.03508,1.205548 0.12874,0.07957 1.294171,0.214009 3.496845,0.403395 1.809853,0.155612 2.111725,0.254193 2.685935,0.877136 0.945081,1.025293 1.214645,2.34546 0.807335,3.953865 -0.102961,0.406575 -0.603496,2.223737 -1.1123,4.038138 -1.171492,4.177545 -1.451916,5.330073 -1.451916,5.96729 v 0.510988 l 0.331805,-7.96e-4 c 1.034007,-0.0026 2.837694,-1.857619 4.860021,-4.998366 0.782839,-1.215779 1.154734,-1.957699 1.574501,-3.141088 1.522882,-4.293251 4.038591,-6.92368 7.552132,-7.896535 0.942495,-0.260966 3.563215,-0.283004 4.439588,-0.03733 1.390104,0.389681 2.387002,1.134649 2.926772,2.187137 0.26249,0.511819 0.29647,0.664128 0.32992,1.479129 0.0221,0.539208 -0.005,1.078752 -0.0679,1.32722 -0.38332,1.524906 -1.588161,2.586227 -2.936122,2.586387 -0.342661,4.1e-5 -0.832565,-0.07549 -1.174368,-0.181064 l -0.586446,-0.181135 0.305703,-0.548837 c 0.594126,-1.066633 0.937027,-2.271021 0.937027,-3.291158 0,-1.224525 -0.426879,-1.684535 -1.557378,-1.678255 -0.522191,0.0029 -0.723946,0.05066 -1.194499,0.28278 -1.987583,0.980457 -3.73585,3.989365 -4.475961,7.703506 -0.198119,0.994208 -0.219611,3.47938 -0.03575,4.132168 0.302562,1.074167 0.912075,1.893063 1.7335,2.328997 0.410226,0.21771 0.522854,0.234866 1.548424,0.235874 1.244968,0.0012 1.725324,-0.119579 3.083876,-0.775557 1.794278,-0.866371 4.112314,-2.917527 5.694584,-5.038942 0.70198,-0.941163 1.06298,-1.578033 1.56121,-2.754248 1.16461,-2.7494 2.95921,-4.891907 5.07655,-6.060706 0.69287,-0.382469 2.21225,-0.927899 3.00062,-1.077163 0.26066,-0.04935 0.75425,-0.224516 1.09688,-0.389256 0.85374,-0.410489 1.29279,-0.516256 2.11997,-0.51069 2.44194,0.01643 4.00793,1.926149 4.38034,5.341823 0.0548,0.502431 0.12684,1.096731 0.16014,1.32067 l 0.0605,0.407161 0.5492,-0.113263 c 1.35666,-0.279786 3.55008,-1.392843 4.52686,-2.297171 0.45011,-0.416724 0.57087,-0.598053 0.80286,-1.205572 0.15019,-0.393289 0.35739,-1.138208 0.46047,-1.655375 0.22003,-1.103934 0.3889,-1.473565 0.94466,-2.067718 0.63283,-0.676555 1.12418,-0.8891553 2.15994,-0.9345878 l 0.86131,-0.03778 0.31107,0.3110721 c 0.2795,0.2794897 0.31077,0.3591337 0.30805,0.7844477 -0.002,0.260356 -0.0766,0.783551 -0.16643,1.162655 l -0.16342,0.68928 0.86051,1.345791 c 0.47327,0.740185 1.28767,2.002765 1.80979,2.805733 1.09289,1.680798 1.90632,3.274686 2.19004,4.291346 0.29672,1.063181 0.26841,2.283051 -0.0801,3.450773 -0.14524,0.486647 -0.24888,0.902238 -0.23032,0.923535 0.0621,0.07127 0.83569,-0.736142 1.77495,-1.85259 1.10994,-1.319313 2.42176,-3.270424 3.19971,-4.759033 0.31064,-0.594405 0.59342,-1.080736 0.6284,-1.080736 0.035,0 0.19838,0.09082 0.3631,0.201821 0.61985,0.417722 0.56958,0.884139 -0.28095,2.606124 -1.89496,3.836553 -5.02957,7.130994 -8.40003,8.828331 -1.61788,0.814749 -3.40568,1.329942 -5.01338,1.444705 -2.33956,0.167009 -3.72683,-0.26666 -4.49569,-1.405382 -0.24738,-0.366373 -0.26608,-0.450489 -0.26482,-1.190559 0.001,-0.70075 0.0321,-0.857344 0.25746,-1.304649 0.23887,-0.474115 1.24909,-1.570995 1.44687,-1.570995 0.0463,0 0.19373,0.158177 0.3277,0.351504 1.61169,2.325663 5.2578,2.434557 6.34462,0.189488 0.27026,-0.558291 0.32718,-1.73067 0.11883,-2.447411 -0.23582,-0.811189 -0.57203,-1.401674 -2.03956,-3.58219 -0.75271,-1.118401 -1.57328,-2.441318 -1.82348,-2.939815 l -0.45491,-0.906358 -0.22543,0.486647 c -1.41956,3.06443 -3.17314,6.362587 -3.48984,6.56372 -0.17724,0.112568 -0.22458,0.09022 -0.59634,-0.281544 -0.23645,-0.236448 -0.35393,-0.432465 -0.35393,-0.590541 0,-0.135679 0.37316,-0.900009 0.87477,-1.791747 1.04498,-1.857717 1.17951,-2.118725 1.14355,-2.21873 -0.0151,-0.04206 -0.43439,0.09788 -0.93171,0.310975 -0.70672,0.30282 -2.42054,0.891729 -3.36237,1.155394 -0.0594,0.01662 -0.12546,0.121517 -0.14685,0.233096 -0.0214,0.11158 -0.12063,0.643991 -0.22054,1.183138 -0.75622,4.080897 -3.01484,7.435681 -5.98378,8.887883 -1.50312,0.735223 -2.0044,0.838294 -4.07014,0.836899 -1.69232,-0.0011 -1.79909,-0.01158 -2.44386,-0.238837 -2.47793,-0.873384 -3.74033,-2.683373 -4.0136,-5.754579 -0.0336,-0.377152 -0.0875,-0.684168 -0.11983,-0.682258 -0.0324,0.0019 -0.27781,0.290202 -0.54546,0.64065 -0.74541,0.975982 -2.591131,2.783071 -3.642016,3.565787 -1.394634,1.038744 -2.800107,1.765754 -4.278347,2.213061 -0.677679,0.205062 -0.997512,0.246164 -2.16651,0.278418 -1.702311,0.04697 -2.369548,-0.07569 -3.53084,-0.649038 -1.746253,-0.862161 -2.92249,-2.552311 -3.332779,-4.788914 -0.227753,-1.241548 -0.158475,-1.254409 -1.143957,0.212359 -1.640566,2.441781 -3.306489,4.26282 -4.483507,4.900973 -0.541687,0.29369 -0.591754,0.303573 -1.5378,0.303573 -0.948615,0 -0.997633,-0.0098 -1.637692,-0.326095 -0.85578,-0.422949 -1.498319,-1.065568 -1.923471,-1.92371 -0.665245,-1.342756 -0.55474,-2.084908 1.219648,-8.191106 1.00855,-3.470721 1.504851,-5.314583 1.50525,-5.592324 3.54e-4,-0.216157 -0.02476,-0.223353 -1.326939,-0.380933 -0.413651,-0.05006 -1.282363,-0.175141 -1.930471,-0.277964 -0.671928,-0.106603 -1.207875,-0.153406 -1.247006,-0.108898 -0.03774,0.04293 -0.318114,0.715121 -0.623047,1.493757 -0.940462,2.401446 -2.256703,5.059042 -3.866922,7.807625 -2.527198,4.313831 -4.811007,6.91273 -6.595475,7.505435 -1.321955,0.439084 -3.162249,-0.374709 -4.132265,-1.827319 -0.33284,-0.498465 -0.36286,-0.591503 -0.36286,-1.124563 0,-0.816953 0.221714,-1.572961 1.516514,-5.171053 0.62586,-1.739187 1.137926,-3.225276 1.137926,-3.302418 0,-0.08588 -0.06003,-0.128772 -0.154842,-0.110634 -0.0985,0.01884 -0.412422,0.52938 -0.862694,1.402997 -1.637734,3.17753 -3.39239,5.716164 -5.24031,7.581673 -1.148239,1.159168 -1.942411,1.771471 -2.937054,2.264454 -0.700498,0.347193 -0.791496,0.369524 -1.505804,0.369524 -0.686468,0 -0.819924,-0.02935 -1.37512,-0.302428 -1.170685,-0.57581 -2.198547,-1.89601 -2.551113,-3.276683 -0.06773,-0.265246 -0.163511,-0.495719 -0.212841,-0.512162 -0.04933,-0.01644 -0.562909,0.416306 -1.141286,0.961663 -1.272778,1.200116 -2.14392,1.903396 -2.93509,2.369524 -1.592314,0.938132 -3.073408,0.97656 -4.402821,0.114237 -1.080286,-0.700728 -1.723101,-1.724648 -1.788697,-2.849164 -0.04655,-0.798038 0.03186,-1.168472 1.448147,-6.841477 2.708117,-10.8474795 3.453979,-14.2350993 3.617244,-16.4291184 0.04983,-0.669604 0.04174,-0.7344865 -0.07377,-0.5915762 -0.07136,0.088283 -0.478034,1.043882 -0.903728,2.1235524 -3.240396,8.2184922 -7.811163,16.5981442 -11.817232,21.6647032 -0.922945,1.167268 -2.434717,2.671172 -3.174895,3.158372 -0.569283,0.374713 -0.581874,0.3782 -1.238739,0.343058 -1.400255,-0.07491 -2.72194,-1.115854 -3.260775,-2.56814 -0.234407,-0.631779 -0.235552,-0.839558 -0.01173,-2.128496 0.216731,-1.248118 0.547769,-2.708444 2.079105,-9.171677 1.772046,-7.4791894 2.264161,-9.7542853 2.61247,-12.0777049 0.19639,-1.3100299 0.210555,-1.5324417 0.08988,-1.4112776 -0.04604,0.046231 -0.463893,1.0116742 -0.92855,2.1454282 -2.311611,5.6402843 -5.471584,12.1900023 -8.053952,16.6935303 -1.696233,2.958149 -3.198137,4.952491 -4.78111,6.348722 C 8.9402489,29.810305 7.3728148,30.693056 6.4382848,30.79735 6.2064196,30.82322 5.9171703,30.85574 5.7955084,30.8696 5.6738466,30.88346 5.3349723,30.8651 5.0424545,30.82872 Z M 111.9379,28.19009 c 1.73749,-0.813067 3.34902,-2.896125 4.27275,-5.522936 0.32484,-0.923697 0.62897,-2.079643 0.62897,-2.390504 0,-0.208814 -0.0343,-0.224856 -0.59725,-0.279285 -1.00224,-0.0969 -1.61637,-0.224224 -2.31973,-0.480918 -1.71522,-0.625977 -2.79315,-1.721106 -3.19634,-3.247325 l -0.19998,-0.757019 -0.1598,0.20727 c -0.32792,0.425322 -1.22575,2.366781 -1.56892,3.392599 -0.56692,1.694663 -0.72207,2.59406 -0.77949,4.51872 -0.054,1.810674 0.0167,2.505503 0.34374,3.379751 0.21755,0.581459 0.84442,1.257842 1.31078,1.414317 0.55066,0.184756 1.60164,0.07588 2.26527,-0.23467 z M 51.975813,26.433803 c 1.821146,-1.07116 4.665456,-4.805668 7.32866,-9.622346 l 0.733837,-1.327221 -0.24518,-0.201965 c -1.025267,-0.844559 -3.003121,-1.523421 -4.438456,-1.523421 -0.818045,0 -1.33614,0.270307 -2.108498,1.100073 -1.478205,1.588076 -2.70892,4.574598 -3.161115,7.670936 -0.162431,1.112229 -0.180527,3.053533 -0.03305,3.545765 0.233787,0.780311 0.972331,0.917815 1.923802,0.358179 z m 65.072737,-8.53845 c -0.19842,-1.88067 -0.46766,-2.867994 -0.99908,-3.663782 -0.38791,-0.580863 -0.72851,-0.865653 -1.25934,-1.052939 -0.8165,-0.288076 -1.64259,-0.07998 -1.95209,0.491737 -0.14238,0.26302 -0.16289,0.456342 -0.13609,1.282979 0.0273,0.840365 0.0632,1.034269 0.26307,1.41974 0.60969,1.175691 1.89465,1.871821 3.49013,1.890785 l 0.63308,0.0075 -0.0397,-0.376045 z"
     id="path449" />
  <path
     style="fill:#c8e0f4;stroke:#c8e0f4;stroke-width:0.977;fill-opacity:1;stroke-opacity:1;stroke-miterlimit:4;stroke-dasharray:none"
     d="M 4.3009051,30.528716 C 2.9222192,30.1129 1.4882104,28.499866 0.75788976,26.543384 0.41828997,25.633617 0.36135925,25.129984 0.35792713,23.005151 0.3545153,20.892887 0.41507303,20.332942 0.76872839,19.206689 1.5523812,16.711065 3.0583499,14.224687 4.6175503,12.852224 c 2.8243868,-2.486124 6.1474657,-2.39737 7.2295627,0.193091 0.346801,0.830214 0.34676,1.367179 -1.69e-4,2.234239 l -0.275,0.687294 -0.654054,-0.233539 c -0.9292,-0.331783 -2.1272012,-0.295574 -2.9761777,0.08995 -1.7824985,0.809448 -3.729781,3.620173 -4.4239421,6.385555 -0.3364012,1.340147 -0.248014,3.648277 0.1788268,4.669849 0.4818165,1.153151 1.0143105,1.523845 2.1889638,1.523845 0.8550209,0 1.1874898,-0.09632 1.9103927,-0.553435 3.1916825,-2.018228 5.7796305,-5.763749 9.5827285,-13.869025 1.690042,-3.601867 2.626525,-5.8690187 4.203094,-10.175355 l 1.263344,-3.4507726 1.584198,0.0223528 c 1.244152,0.0175549 1.767006,0.10832244 2.43586,0.4228662 0.953192,0.4482612 1.840069,1.2552062 2.08364,1.8958458 0.415886,1.0938596 0.0063,3.4214416 -2.110515,11.9929138 -1.664427,6.739722 -2.650845,11.508328 -2.425524,11.725609 0.225599,0.217547 2.500747,-2.39274 3.973331,-4.55862 3.344249,-4.918722 6.199529,-10.689857 9.061705,-18.315639 l 1.195544,-3.18532865 1.574646,0.0229041 c 2.216587,0.0322416 3.705977,0.72639535 4.393408,2.04761955 0.478497,0.9196552 0.522079,0.6881528 -2.425312,12.882824 -2.069606,8.562875 -2.634938,11.096025 -2.634938,11.806684 0,0.392529 0.05458,0.429064 0.486648,0.325783 0.77273,-0.184713 2.213509,-1.147447 3.723413,-2.487999 l 1.395227,-1.238739 0.550816,-2.158883 c 1.322078,-5.181781 3.376356,-8.229159 6.58521,-9.768697 1.288296,-0.618096 1.384311,-0.636193 3.27381,-0.617049 1.945585,0.01971 2.075198,0.04788 4.296009,0.933612 l 0.933717,0.372397 0.16792,-0.441663 c 0.196545,-0.516954 0.477957,-0.543325 1.754031,-0.164372 1.245495,0.369873 2.49279,1.497408 2.49279,2.253446 0,0.296488 -0.673516,2.814701 -1.496701,5.596028 -2.106096,7.115939 -2.202514,7.622916 -1.449735,7.622916 1.245751,0 4.069212,-3.406725 6.453262,-7.786359 0.882759,-1.621681 2.509908,-5.382012 2.509901,-5.80037 -4e-6,-0.167664 -0.285004,-0.532244 -0.633335,-0.810178 -1.201324,-0.958539 -1.598727,-2.166815 -1.125028,-3.4205648 0.230578,-0.6102783 0.975245,-1.4175108 1.616858,-1.7527051 0.64487,-0.3368956 2.037747,-0.3009626 2.795951,0.072129 l 0.619369,0.3047745 v 1.6570578 c 0,1.9341986 -0.09111,1.8466866 2.123552,2.0397106 2.559925,0.223117 3.479852,0.420784 3.94352,0.847356 0.607674,0.559055 1.0914,1.681061 1.096031,2.542244 0.0021,0.39759 -0.561483,2.786586 -1.25249,5.308881 -0.691006,2.522294 -1.299158,5.083698 -1.351449,5.692007 -0.09332,1.085705 -0.08699,1.106017 0.345012,1.106017 0.82738,0 2.21457,-1.242683 3.85205,-3.450773 1.210558,-1.632401 1.94138,-2.96057 2.882216,-5.238041 1.418255,-3.433156 3.069469,-5.413266 5.52694,-6.627819 3.21514,-1.589015 7.179654,-1.156539 8.656162,0.944274 0.42094,0.598922 0.54436,0.985523 0.6016,1.884387 0.0625,0.981108 0.007,1.250726 -0.42056,2.035873 -0.27091,0.497751 -0.757761,1.068903 -1.081895,1.269228 -0.586941,0.362751 -1.786844,0.483682 -2.512853,0.253255 -0.341003,-0.10823 -0.338443,-0.135953 0.103492,-1.120764 0.588328,-1.311035 0.763031,-3.362048 0.34121,-4.005826 -0.570552,-0.870775 -2.040447,-0.765815 -3.43636,0.24538 -1.658398,1.201337 -3.390703,4.88846 -3.792923,8.073046 -0.369523,2.925689 0.255065,4.921812 1.807571,5.776823 0.501064,0.275952 0.855981,0.324757 1.858108,0.255511 2.174298,-0.150241 4.071892,-1.147904 6.4213,-3.376007 1.70317,-1.615233 2.76844,-3.048277 3.62898,-4.881869 1.42889,-3.044574 3.21744,-5.251345 5.07596,-6.262881 0.47831,-0.260325 1.96526,-0.837569 3.30434,-1.282763 2.00918,-0.667973 2.59959,-0.795771 3.37812,-0.731209 2.06865,0.171548 3.37015,1.916757 3.84824,5.160172 0.14186,0.962386 0.28648,1.778357 0.32139,1.813266 0.14632,0.146317 2.07979,-0.551488 3.348,-1.208312 2.14493,-1.110898 2.5429,-1.67353 3.31837,-4.691456 0.36677,-1.427352 1.54125,-2.3528021 2.98593,-2.3528021 0.99009,0 1.16217,0.2918461 1.02736,1.7423801 l -0.11184,1.203379 1.69961,2.641503 c 2.34888,3.650582 3.13957,5.320517 3.21714,6.794613 0.0334,0.635674 -0.0574,1.653479 -0.20191,2.261788 -0.14451,0.608309 -0.20735,1.106017 -0.13966,1.106017 0.2018,0 1.85566,-1.779286 2.71778,-2.923895 0.44151,-0.586181 1.18149,-1.701046 1.64441,-2.477477 1.42466,-2.38954 1.31837,-2.2553 1.6004,-2.021236 0.40503,0.336151 0.29928,0.970072 -0.39025,2.339347 -2.15801,4.285375 -5.84579,7.864221 -9.59242,9.309074 -3.54613,1.367534 -7.07422,1.144336 -8.05107,-0.50934 -0.57171,-0.967832 -0.25764,-2.291412 0.77952,-3.28507 l 0.52605,-0.503984 0.52237,0.633731 c 0.7426,0.900905 1.96739,1.440854 3.27568,1.444092 2.54993,0.0063 3.88664,-1.993423 3.00425,-4.494391 -0.14826,-0.420212 -0.90853,-1.747156 -1.68948,-2.948768 -0.78096,-1.20161 -1.67498,-2.658235 -1.98671,-3.236944 -0.31174,-0.578708 -0.60661,-1.04703 -0.65528,-1.040716 -0.0487,0.0063 -0.78956,1.434867 -1.64644,3.174561 -1.81099,3.676777 -2.07537,4.072137 -2.4919,3.726445 -0.43683,-0.362534 -0.36367,-0.637329 0.69999,-2.629161 0.54215,-1.015235 0.93771,-1.893892 0.87903,-1.952571 -0.0947,-0.0947 -3.68643,1.05597 -4.32877,1.386797 -0.1439,0.07411 -0.42215,0.888538 -0.64871,1.89874 -0.93936,4.188534 -3.2833,7.339321 -6.44113,8.658341 -1.03168,0.430932 -1.3748,0.482108 -3.27593,0.488605 -1.96994,0.0067 -2.19577,-0.02821 -3.12189,-0.483013 -1.83313,-0.900225 -2.93621,-2.56675 -3.24804,-4.907092 -0.0713,-0.535313 -0.16576,-1.034114 -0.20987,-1.108447 -0.0441,-0.07433 -0.88096,0.703563 -1.85968,1.728657 -2.153076,2.255106 -4.140064,3.637769 -6.295321,4.380655 -1.353622,0.466572 -1.698318,0.516414 -3.126232,0.452038 -3.29583,-0.148585 -5.092858,-1.606931 -6.044117,-4.904995 -0.210934,-0.73132 -0.454292,-1.353264 -0.540796,-1.382098 -0.0865,-0.02884 -0.673678,0.68063 -1.304833,1.576587 -2.361647,3.352486 -3.994683,4.744696 -5.562026,4.741786 -1.757808,-0.0033 -3.470631,-1.488421 -3.757854,-3.258361 -0.142388,-0.87743 0.11404,-2.040481 1.629938,-7.392751 1.240561,-4.38012 1.503156,-5.623463 1.189267,-5.63097 -0.073,-0.0017 -0.889238,-0.119767 -1.813868,-0.26227 -2.851072,-0.439403 -2.634735,-0.53163 -3.430393,1.462414 -1.334619,3.344763 -4.277153,8.726146 -6.118912,11.190419 -1.057584,1.415048 -2.825907,3.170832 -3.583125,3.55772 -1.428301,0.729767 -3.2387,0.203994 -4.363192,-1.267152 -0.541276,-0.708138 -0.587081,-0.86046 -0.501475,-1.667667 0.05181,-0.48859 0.658313,-2.477019 1.347776,-4.418733 0.689461,-1.941713 1.253566,-3.594102 1.253566,-3.671976 0,-0.07787 -0.113718,-0.141588 -0.252704,-0.141588 -0.138988,0 -0.738216,0.881962 -1.331616,1.959915 -0.593402,1.077954 -1.56715,2.690526 -2.163888,3.583494 -1.348903,2.018529 -4.142217,4.858547 -5.403729,5.494083 -1.045281,0.526603 -2.260907,0.612084 -3.032215,0.213226 -0.780531,-0.403629 -1.890995,-1.731435 -2.239989,-2.678406 -0.177244,-0.480939 -0.382352,-0.943707 -0.455799,-1.028373 -0.07344,-0.08467 -0.916341,0.536024 -1.873099,1.379311 -2.663069,2.347232 -4.349162,3.010741 -5.948111,2.340698 -1.377274,-0.577151 -2.415464,-1.991717 -2.423667,-3.302322 -0.0021,-0.341586 0.517238,-2.730582 1.154167,-5.308881 C 37.751775,14.483576 38.835558,9.9034401 39.280752,7.6978774 40.109371,3.592773 40.030183,2.2138308 39.095374,4.4697829 36.441587,10.874112 34.523628,14.918222 32.204868,18.998742 c -3.96263,6.97338 -7.820541,11.712248 -9.525293,11.7004 -1.338058,-0.0093 -2.906041,-1.258647 -3.321972,-2.646902 -0.267375,-0.892417 -0.196337,-1.264097 2.230374,-11.669458 2.296852,-9.8485485 2.991811,-13.6123487 2.402507,-13.0116426 -0.09071,0.092463 -0.7584,1.5616958 -1.483761,3.2649618 -3.34296,7.8498088 -7.053117,15.1290008 -9.470656,18.5810838 -1.681768,2.401451 -4.1927782,4.628967 -5.8951763,5.229607 -0.7830239,0.276267 -2.0723069,0.313459 -2.8399856,0.08192 z M 112.248,28.121282 c 1.07849,-0.53743 2.43241,-1.983624 3.19225,-3.409806 0.66002,-1.238823 1.44361,-3.539669 1.44361,-4.238854 0,-0.504448 -0.037,-0.52816 -1.01442,-0.650282 -2.73053,-0.341157 -4.42088,-1.631511 -5.09364,-3.8883 l -0.20881,-0.700453 -0.45989,0.700453 c -0.54741,0.833767 -1.42258,2.980544 -1.8079,4.434747 -0.1521,0.574035 -0.32462,1.960308 -0.38338,3.080607 -0.12791,2.438934 0.15806,3.725311 1.01972,4.586971 0.46763,0.467626 0.67167,0.543111 1.46805,0.543111 0.64038,0 1.20782,-0.140965 1.84441,-0.458194 z M 52.120379,26.51825 c 1.860377,-1.239845 5.466652,-6.051272 7.516419,-10.028268 l 0.53052,-1.029325 -0.530889,-0.431927 c -0.830746,-0.67589 -2.342023,-1.176433 -3.804698,-1.260136 -1.10407,-0.06318 -1.420711,-0.01699 -1.883274,0.274756 -1.340459,0.845437 -3.032505,4.04557 -3.709242,7.015211 -0.400885,1.759149 -0.456338,5.018255 -0.09286,5.457673 0.315374,0.381264 1.403302,0.382376 1.974027,0.002 z m 65.025871,-9.043184 c -0.29592,-2.196768 -1.0573,-3.85535 -1.95826,-4.265858 -0.65698,-0.299336 -1.85047,-0.250891 -2.22761,0.09042 -0.25391,0.229783 -0.32362,0.5557 -0.32362,1.512971 0,1.40313 0.26444,2.043058 1.11112,2.688853 0.82917,0.632442 1.3172,0.79025 2.48321,0.802969 l 1.02838,0.01122 z"
     id="path39575" />
  <path
     style="fill:#508aa8;fill-opacity:1;stroke:#508aa8;stroke-width:0.577;stroke-opacity:1;stroke-miterlimit:4;stroke-dasharray:none"
     d="m 140.95079,30.578541 c -2.06062,-1.057708 -1.23464,-4.59791 1.09318,-4.685422 1.45386,-0.05466 2.44665,0.900746 2.44541,2.353319 -0.002,1.88951 -1.92776,3.158934 -3.53859,2.332103 z"
     id="path40577" />
</svg>
